<svg id="visual" viewBox="0 0 900 600" width="900" height="600" xmlns="http://www.w3.org/2000/svg" xmlns:xlink="http://www.w3.org/1999/xlink" version="1.1"><rect x="0" y="0" width="900" height="600" fill="#ffffff"></rect><g fill="rgba(114, 95, 242, 0.45)"><circle r="49" cx="214" cy="442"></circle><circle r="13" cx="321" cy="391"></circle><circle r="36" cx="619" cy="429"></circle><circle r="14" cx="8" cy="289"></circle><circle r="44" cx="40" cy="513"></circle><circle r="20" cx="578" cy="245"></circle><circle r="20" cx="849" cy="386"></circle><circle r="23" cx="548" cy="535"></circle><circle r="21" cx="401" cy="78"></circle><circle r="39" cx="257" cy="107"></circle><circle r="29" cx="818" cy="537"></circle><circle r="45" cx="742" cy="97"></circle><circle r="47" cx="325" cy="547"></circle><circle r="31" cx="628" cy="138"></circle><circle r="25" cx="446" cy="343"></circle><circle r="18" cx="475" cy="210"></circle><circle r="37" cx="856" cy="263"></circle><circle r="14" cx="428" cy="574"></circle><circle r="42" cx="456" cy="452"></circle><circle r="43" cx="86" cy="388"></circle><circle r="29" cx="292" cy="273"></circle><circle r="18" cx="682" cy="536"></circle><circle r="30" cx="167" cy="284"></circle><circle r="47" cx="22" cy="15"></circle><circle r="34" cx="355" cy="189"></circle><circle r="12" cx="136" cy="82"></circle><circle r="20" cx="721" cy="264"></circle><circle r="34" cx="259" cy="5"></circle><circle r="27" cx="27" cy="144"></circle><circle r="39" cx="704" cy="382"></circle><circle r="22" cx="898" cy="101"></circle><circle r="30" cx="556" cy="32"></circle><circle r="37" cx="139" cy="532"></circle><circle r="46" cx="565" cy="348"></circle><circle r="12" cx="187" cy="182"></circle><circle r="21" cx="819" cy="36"></circle><circle r="15" cx="675" cy="7"></circle><circle r="43" cx="798" cy="182"></circle><circle r="13" cx="228" cy="597"></circle></g></svg>