<svg xmlns="http://www.w3.org/2000/svg" version="1.1" xmlns:xlink="http://www.w3.org/1999/xlink" xmlns:svgjs="http://svgjs.com/svgjs" width="1920" height="1080" preserveAspectRatio="none" viewBox="0 0 1920 1080"><g mask="url(&quot;#SvgjsMask1005&quot;)" fill="none"><rect width="1920" height="1080" x="0" y="0" fill="rgba(255, 255, 255, 1)"></rect><path d="M1977.46,773.71C2084.859,777.382,2205.023,767.896,2262.26,676.945C2322.128,581.813,2297.43,457.35,2235.641,363.455C2179.785,278.576,2078.896,238.244,1977.46,244.165C1885.879,249.511,1814.49,312.529,1766.693,390.83C1716.242,473.479,1677.807,573.732,1724.503,658.56C1772.387,745.547,1878.222,770.317,1977.46,773.71" fill="rgba(114, 95, 242, 0.45)" class="triangle-float2"></path><path d="M851.42 671.05 a328.47 328.47 0 1 0 656.94 0 a328.47 328.47 0 1 0 -656.94 0z" fill="rgba(114, 95, 242, 0.45)" class="triangle-float1"></path><path d="M382.799,445.226C469.675,443.427,540.569,380.38,580.102,302.999C616.085,232.566,611.441,148.285,568.403,81.928C528.866,20.97,455.4,-4.045,382.799,-1.204C315.427,1.432,258.59,39.722,220.755,95.53C176.32,161.072,137.526,239.627,170.818,311.473C208.468,392.723,293.269,447.08,382.799,445.226" fill="rgba(114, 95, 242, 0.45)" class="triangle-float1"></path><path d="M1692.566,776.806C1733.795,777.993,1771.21,753.679,1791.924,718.012C1812.733,682.181,1814.351,638.176,1794.054,602.053C1773.343,565.193,1734.75,538.335,1692.566,541.183C1653.866,543.796,1630.351,579.976,1612.329,614.323C1595.943,645.553,1587.028,680.942,1602.644,712.564C1620.126,747.965,1653.1,775.67,1692.566,776.806" fill="rgba(114, 95, 242, 0.45)" class="triangle-float1"></path><path d="M571.16 54.89 a339.24 339.24 0 1 0 678.48 0 a339.24 339.24 0 1 0 -678.48 0z" fill="rgba(114, 95, 242, 0.45)" class="triangle-float2"></path><path d="M311.588,1195.436C371.449,1199.733,429.679,1166.914,458.736,1114.402C486.989,1063.343,477.505,1000.992,446.555,951.522C417.54,905.145,366.225,876.469,311.588,879.203C261.063,881.732,221.827,919.248,198.152,963.954C176.138,1005.524,176.286,1053.372,196.985,1095.612C220.879,1144.37,257.429,1191.548,311.588,1195.436" fill="rgba(114, 95, 242, 0.45)" class="triangle-float3"></path><path d="M801.945,831.159C865.657,832.105,927.746,803.25,959.825,748.195C992.108,692.789,983.574,626.097,954.825,568.777C922.119,503.566,874.895,434.101,801.945,433.409C728.301,432.711,676.015,499.524,643.961,565.83C616.287,623.076,619.451,688.991,651.981,743.624C683.719,796.927,739.916,830.238,801.945,831.159" fill="rgba(114, 95, 242, 0.45)" class="triangle-float2"></path><path d="M448.611,966.375C505.878,967.834,569.089,960.912,599.612,912.435C631.624,861.594,616.939,797.423,588.215,744.654C557.897,688.956,511.95,638.139,448.611,635.033C380.571,631.696,314.132,669.053,283.09,729.691C254.196,786.133,274.039,853.102,310.378,905.064C341.34,949.338,394.603,964.999,448.611,966.375" fill="rgba(114, 95, 242, 0.45)" class="triangle-float1"></path><path d="M-200.07 166.57 a319.17 319.17 0 1 0 638.34 0 a319.17 319.17 0 1 0 -638.34 0z" fill="rgba(114, 95, 242, 0.45)" class="triangle-float3"></path><path d="M742.84 1064.23 a263.46 263.46 0 1 0 526.92 0 a263.46 263.46 0 1 0 -526.92 0z" fill="rgba(114, 95, 242, 0.45)" class="triangle-float2"></path><path d="M1133.51 114.51 a270.58 270.58 0 1 0 541.16 0 a270.58 270.58 0 1 0 -541.16 0z" fill="rgba(114, 95, 242, 0.45)" class="triangle-float3"></path><path d="M1069.038,333.612C1116.916,336.297,1169.669,321.589,1191.633,278.962C1212.516,238.433,1187.342,192.306,1161.038,155.066C1139.489,124.557,1106.389,105.122,1069.038,105.398C1032.181,105.671,998.935,125.176,979.367,156.41C958.391,189.892,950.312,231.176,968.152,266.429C987.705,305.067,1025.802,331.187,1069.038,333.612" fill="rgba(114, 95, 242, 0.45)" class="triangle-float2"></path><path d="M1551.585,730.109C1645.867,727.627,1741.385,698.277,1790.468,617.74C1841.379,534.204,1833.477,429.987,1786.937,343.94C1737.803,253.096,1654.801,172.447,1551.585,176.074C1452.467,179.557,1392.704,273.568,1343.242,359.533C1293.963,445.18,1241.456,544.783,1289.881,630.916C1338.883,718.075,1451.631,732.74,1551.585,730.109" fill="rgba(114, 95, 242, 0.45)" class="triangle-float3"></path><path d="M398.45,900.753C448.001,903.149,498.425,886.462,525.606,844.962C555.408,799.461,563.166,739.226,534.537,692.978C507.045,648.567,450.67,638.444,398.45,639.549C348.606,640.603,296.14,654.921,271.981,698.532C248.365,741.163,265.103,792.297,290.944,833.617C314.954,872.009,353.221,898.566,398.45,900.753" fill="rgba(114, 95, 242, 0.45)" class="triangle-float1"></path></g><defs><mask id="SvgjsMask1005"><rect width="1920" height="1080" fill="#ffffff"></rect></mask><style>
            @keyframes float1 {
                0%{transform: translate(0, 0)}
                50%{transform: translate(-10px, 0)}
                100%{transform: translate(0, 0)}
            }

            .triangle-float1 {
                animation: float1 5s infinite;
            }

            @keyframes float2 {
                0%{transform: translate(0, 0)}
                50%{transform: translate(-5px, -5px)}
                100%{transform: translate(0, 0)}
            }

            .triangle-float2 {
                animation: float2 4s infinite;
            }

            @keyframes float3 {
                0%{transform: translate(0, 0)}
                50%{transform: translate(0, -10px)}
                100%{transform: translate(0, 0)}
            }

            .triangle-float3 {
                animation: float3 6s infinite;
            }
        </style></defs></svg>